<svg width="111" height="88" viewBox="0 0 111 88" fill="none" xmlns="http://www.w3.org/2000/svg">
	<path d="M68.125 61.2777V80.7416C68.125 82.2907 68.3175 82.7749 69.667 83.017L72.0771 83.4525V85.9222L64.124 86.2123L63.4004 82.2426H63.2559C60.9903 85.0506 58.6761 86.6 55.1572 86.6C49.8069 86.5998 47.541 83.4522 47.541 78.3685V67.2816C47.541 65.0546 47.3004 64.5706 45.8545 64.3285L43.6855 63.9886L44.0703 61.4711L52.0723 60.9388L52.6514 61.2777V76.723C52.6514 80.9836 53.4707 82.7269 56.9414 82.7269C60.6531 82.7269 63.0146 80.257 63.0146 76.0931V67.057L63.0078 66.6449C62.9619 64.957 62.6725 64.5455 61.376 64.3285L59.3037 63.9886L59.6406 61.4711L67.5459 60.9388L68.125 61.2777Z"
		style="fill:#fff;fill-opacity:1;" />
	<path d="M106.5 79.6771C108.581 79.6771 110 80.9748 110 83.1381C110 85.2534 108.581 86.6 106.5 86.6C104.514 86.6 103 85.302 103 83.1869C103 81.0234 104.514 79.6771 106.5 79.6771Z"
		style="fill:#fff;fill-opacity:1;" />
	<path d="M32.9111 60.6C38.2618 60.6 40.4795 64.0376 40.4795 68.8793V81.1293C40.4795 82.533 40.6724 82.8716 41.9736 83.1136L44.2393 83.5013V85.9222H32.2363V83.5502L33.9717 83.1136C35.0782 82.8821 35.3468 82.5623 35.3682 81.264L35.3701 70.5258C35.3701 66.2651 34.3575 64.4731 31.1279 64.473C27.85 64.473 25.3428 66.846 25.3428 70.8646V80.9349C25.3428 82.3706 25.4756 82.7432 26.373 82.9847L28.5732 83.5502V85.9222H17.0518V83.5502L18.7871 83.1625C19.9439 82.872 20.1855 82.5814 20.1855 81.1293V70.5258L20.1797 69.972C20.0953 66.1092 19.0774 64.473 15.9912 64.473C12.5207 64.4732 10.1592 66.9431 10.1592 71.1068V80.9349C10.1592 82.3054 10.3197 82.7078 11.1182 82.9515L13.3887 83.5502V85.9222H1.43359V83.5013L3.74805 83.0658C4.71789 82.8802 4.97987 82.4716 5 80.9467V67.101L4.99316 66.6781C4.94899 65.0143 4.68006 64.5375 3.50684 64.349L1 63.9896L1.33789 61.4711L8.71289 60.9388L9.29102 61.2777L9.62891 65.5873H9.77344C11.3642 62.7791 14.3047 60.6 17.7754 60.6C21.6315 60.6001 23.9454 62.4398 24.8613 65.6351C26.3075 62.7787 29.3442 60.6 32.9111 60.6Z"
		style="fill:#fff;fill-opacity:1;" />
	<path d="M86.3457 63.6986L84.3809 64.0619C83.3075 64.284 83.2978 64.9558 84.2246 66.1195L88.0811 70.8646L91.4561 66.3129C92.5163 64.9575 92.516 64.473 91.1182 64.1342L89.4795 63.6986L89.9609 61.2777H99.9395V63.7474L97.9941 64.1703C96.9338 64.4163 96.2649 64.8401 95.0713 66.3617L89.7686 73.0433L96.0352 80.7904C97.2882 82.291 98.0116 82.8231 99.2646 83.1136L101 83.4047V85.9222H87.7441V83.5013L89.8164 83.2103C91.0214 83.0167 91.1181 82.3395 90.1543 81.1293L86.0566 76.0931L82.249 81.0316C81.3814 82.1936 81.2846 82.7753 82.5859 83.0658L84.4658 83.5502V85.9222H73.7646V83.5013L75.5479 83.1136C76.5509 82.8508 77.0813 82.549 78.2441 81.3822L78.6338 80.9838L84.3213 73.9144L77.8115 65.9447C76.852 64.7932 76.392 64.4923 75.3076 64.2308L73.6201 63.8441L74.1025 61.2777H86.3457V63.6986Z"
		style="fill:#fff;fill-opacity:1;" />
	<path d="M106.689 51.6C108.723 51.6002 109.952 52.7058 109.952 54.7728C109.952 58.4267 107.919 65.6864 107.919 73.7152V76.6957H105.033V73.6674C105.033 66.0714 103.19 58.6677 103.189 54.8695C103.189 52.8022 104.608 51.6 106.689 51.6Z"
		style="fill:#fff;fill-opacity:1;" />
	<path d="M68.125 31.2777V50.7416C68.125 52.2907 68.3175 52.7749 69.667 53.017L72.0771 53.4525V55.9222L64.124 56.2123L63.4004 52.2426H63.2559C60.9903 55.0506 58.6761 56.6 55.1572 56.6C49.8069 56.5998 47.541 53.4522 47.541 48.3685V37.2816C47.541 35.0546 47.3004 34.5706 45.8545 34.3285L43.6855 33.9886L44.0703 31.4711L52.0723 30.9388L52.6514 31.2777V46.723C52.6514 50.9836 53.4707 52.7269 56.9414 52.7269C60.6531 52.7269 63.0146 50.257 63.0146 46.0931V37.057L63.0078 36.6449C62.9619 34.957 62.6725 34.5455 61.376 34.3285L59.3037 33.9886L59.6406 31.4711L67.5459 30.9388L68.125 31.2777Z"
		style="fill:#fff;fill-opacity:1;" />
	<path d="M32.9111 30.6C38.2618 30.6 40.4795 34.0376 40.4795 38.8793V51.1293C40.4795 52.533 40.6724 52.8716 41.9736 53.1136L44.2393 53.5013V55.9222H32.2363V53.5502L33.9717 53.1136C35.0782 52.8821 35.3468 52.5623 35.3682 51.264L35.3701 40.5258C35.3701 36.2651 34.3575 34.4731 31.1279 34.473C27.85 34.473 25.3428 36.846 25.3428 40.8646V50.9349C25.3428 52.3706 25.4756 52.7432 26.373 52.9847L28.5732 53.5502V55.9222H17.0518V53.5502L18.7871 53.1625C19.9439 52.872 20.1855 52.5814 20.1855 51.1293V40.5258L20.1797 39.972C20.0953 36.1092 19.0774 34.473 15.9912 34.473C12.5207 34.4732 10.1592 36.9431 10.1592 41.1068V50.9349C10.1592 52.3054 10.3197 52.7078 11.1182 52.9515L13.3887 53.5502V55.9222H1.43359V53.5013L3.74805 53.0658C4.71789 52.8802 4.97987 52.4716 5 50.9467V37.101L4.99316 36.6781C4.94899 35.0143 4.68006 34.5375 3.50684 34.349L1 33.9896L1.33789 31.4711L8.71289 30.9388L9.29102 31.2777L9.62891 35.5873H9.77344C11.3642 32.7791 14.3047 30.6 17.7754 30.6C21.6315 30.6001 23.9454 32.4398 24.8613 35.6351C26.3075 32.7787 29.3442 30.6 32.9111 30.6Z"
		style="fill:#fff;fill-opacity:1;" />
	<path d="M86.3457 33.6986L84.3809 34.0619C83.3075 34.284 83.2978 34.9558 84.2246 36.1195L88.0811 40.8646L91.4561 36.3129C92.5163 34.9575 92.516 34.473 91.1182 34.1342L89.4795 33.6986L89.9609 31.2777H99.9395V33.7474L97.9941 34.1703C96.9338 34.4163 96.2649 34.8401 95.0713 36.3617L89.7686 43.0433L96.0352 50.7904C97.2882 52.291 98.0116 52.8231 99.2646 53.1136L101 53.4047V55.9222H87.7441V53.5013L89.8164 53.2103C91.0214 53.0167 91.1181 52.3395 90.1543 51.1293L86.0566 46.0931L82.249 51.0316C81.3814 52.1936 81.2846 52.7753 82.5859 53.0658L84.4658 53.5502V55.9222H73.7646V53.5013L75.5479 53.1136C76.5509 52.8508 77.0813 52.549 78.2441 51.3822L78.6338 50.9838L84.3213 43.9144L77.8115 35.9447C76.852 34.7932 76.392 34.4923 75.3076 34.2308L73.6201 33.8441L74.1025 31.2777H86.3457V33.6986Z"
		style="fill:#fff;fill-opacity:1;" />
	<path d="M68.125 1.27771V20.7416C68.125 22.2907 68.3175 22.7749 69.667 23.017L72.0771 23.4525V25.9222L64.124 26.2123L63.4004 22.2426H63.2559C60.9903 25.0506 58.6761 26.6 55.1572 26.6C49.8069 26.5998 47.541 23.4522 47.541 18.3685V7.28162C47.541 5.05458 47.3004 4.57059 45.8545 4.32849L43.6855 3.98865L44.0703 1.47107L52.0723 0.938843L52.6514 1.27771V16.723C52.6514 20.9836 53.4707 22.7269 56.9414 22.7269C60.6531 22.7269 63.0146 20.257 63.0146 16.0931V7.05701L63.0078 6.6449C62.9619 4.95703 62.6725 4.54553 61.376 4.32849L59.3037 3.98865L59.6406 1.47107L67.5459 0.938843L68.125 1.27771Z"
		style="fill:#fff;fill-opacity:1;" />
	<path d="M32.9111 0.599976C38.2618 0.599976 40.4795 4.03758 40.4795 8.87927V21.1293C40.4795 22.533 40.6724 22.8716 41.9736 23.1136L44.2393 23.5013V25.9222H32.2363V23.5502L33.9717 23.1136C35.0782 22.8821 35.3468 22.5623 35.3682 21.264L35.3701 10.5258C35.3701 6.26513 34.3575 4.47309 31.1279 4.47302C27.85 4.47302 25.3428 6.846 25.3428 10.8646V20.9349C25.3428 22.3706 25.4756 22.7432 26.373 22.9847L28.5732 23.5502V25.9222H17.0518V23.5502L18.7871 23.1625C19.9439 22.872 20.1855 22.5814 20.1855 21.1293V10.5258L20.1797 9.97205C20.0953 6.10916 19.0774 4.47302 15.9912 4.47302C12.5207 4.47319 10.1592 6.94308 10.1592 11.1068V20.9349C10.1592 22.3054 10.3197 22.7078 11.1182 22.9515L13.3887 23.5502V25.9222H1.43359V23.5013L3.74805 23.0658C4.71789 22.8802 4.97987 22.4716 5 20.9467V7.10095L4.99316 6.6781C4.94899 5.01434 4.68006 4.53754 3.50684 4.349L1 3.98962L1.33789 1.47107L8.71289 0.938843L9.29102 1.27771L9.62891 5.58728H9.77344C11.3642 2.77909 14.3047 0.599976 17.7754 0.599976C21.6315 0.600059 23.9454 2.43978 24.8613 5.63513C26.3075 2.77869 29.3442 0.600045 32.9111 0.599976Z"
		style="fill:#fff;fill-opacity:1;" />
	<path d="M86.3457 3.69861L84.3809 4.06189C83.3075 4.28397 83.2978 4.95579 84.2246 6.11951L88.0811 10.8646L91.4561 6.31287C92.5163 4.95747 92.516 4.47304 91.1182 4.13416L89.4795 3.69861L89.9609 1.27771H99.9395V3.74744L97.9941 4.17029C96.9338 4.41632 96.2649 4.84007 95.0713 6.36169L89.7686 13.0433L96.0352 20.7904C97.2882 22.291 98.0116 22.8231 99.2646 23.1136L101 23.4047V25.9222H87.7441V23.5013L89.8164 23.2103C91.0214 23.0167 91.1181 22.3395 90.1543 21.1293L86.0566 16.0931L82.249 21.0316C81.3814 22.1936 81.2846 22.7753 82.5859 23.0658L84.4658 23.5502V25.9222H73.7646V23.5013L75.5479 23.1136C76.5509 22.8508 77.0813 22.549 78.2441 21.3822L78.6338 20.9838L84.3213 13.9144L77.8115 5.9447C76.852 4.79322 76.392 4.49226 75.3076 4.23083L73.6201 3.84412L74.1025 1.27771H86.3457V3.69861Z"
		style="fill:#fff;fill-opacity:1;" />
</svg>
