<svg width="111" height="88" xmlns="http://www.w3.org/2000/svg" xmlns:xlink="http://www.w3.org/1999/xlink"><defs><path d="M0 0h111v88H0V0z" id="prefix__a"/><style>g { fill: #000; } @media (prefers-color-scheme: dark) { g { fill: #fff; } }</style></defs><g xlink:href="#prefix__a"><g fill-rule="nonzero"><path d="M1.434 26.322h11.955V23.95l-2.025-.533c-1.012-.242-1.205-.58-1.205-2.082v-9.828c0-4.164 2.362-6.634 5.833-6.634 3.23 0 4.193 1.792 4.193 6.053v10.603c0 1.452-.24 1.743-1.398 2.033l-1.735.388v2.372h11.52V23.95l-2.072-.533c-1.012-.242-1.157-.58-1.157-2.082v-10.07c0-4.02 2.507-6.392 5.785-6.392 3.23 0 4.242 1.792 4.242 6.053V21.48c0 1.453-.241 1.792-1.398 2.034l-1.736.436v2.372H44.24v-2.42l-2.265-.388c-1.302-.242-1.495-.581-1.495-1.985V9.279C40.48 4.438 38.262 1 32.911 1c-3.567 0-6.604 2.179-8.05 5.035C23.945 2.84 21.631 1 17.775 1c-3.47 0-6.411 2.179-8.002 4.987H9.63l-.338-4.31-.578-.338-7.376.533L1 4.389l2.362.34c1.446.193 1.639.725 1.639 3.001v13.412c0 1.694-.241 2.13-1.253 2.324l-2.314.435v2.421zM55.158 27c3.519 0 5.832-1.55 8.098-4.358h.145l.723 3.97 7.953-.29v-2.47l-2.41-.435c-1.35-.242-1.542-.726-1.542-2.275V1.678l-.579-.34-7.905.534-.338 2.517 2.073.34c1.446.241 1.639.725 1.639 2.953v8.811c0 4.164-2.362 6.634-6.074 6.634-3.47 0-4.29-1.743-4.29-6.004V1.678l-.578-.34-8.002.534-.386 2.517 2.17.34c1.445.241 1.686.725 1.686 2.953v11.087c0 5.084 2.266 8.231 7.617 8.231zM73.765 26.322h10.7V23.95l-1.88-.484c-1.3-.291-1.204-.872-.337-2.034l3.809-4.939 4.097 5.036c.964 1.21.868 1.888-.337 2.082l-2.073.29v2.421H101v-2.518l-1.735-.29c-1.254-.29-1.977-.823-3.23-2.324l-6.267-7.747 5.303-6.681c1.253-1.598 1.928-1.985 3.085-2.228l1.784-.387v-2.47H89.96L89.48 4.1l1.64.435c1.397.34 1.397.824.337 2.18l-3.375 4.55-3.856-4.744c-.964-1.21-.916-1.889.29-2.082l1.83-.34v-2.42H74.103l-.482 2.566 1.687.387c1.205.29 1.639.63 2.844 2.13l6.17 7.554-5.688 7.069c-1.446 1.5-1.976 1.84-3.085 2.13l-1.783.387v2.421z"/></g><g fill-rule="nonzero"><path d="M1.434 56.322h11.955V53.95l-2.025-.533c-1.012-.242-1.205-.58-1.205-2.082v-9.828c0-4.164 2.362-6.634 5.833-6.634 3.23 0 4.193 1.792 4.193 6.053v10.603c0 1.452-.24 1.743-1.398 2.033l-1.735.388v2.372h11.52V53.95l-2.072-.533c-1.012-.242-1.157-.58-1.157-2.082v-10.07c0-4.02 2.507-6.392 5.785-6.392 3.23 0 4.242 1.792 4.242 6.053V51.48c0 1.453-.241 1.792-1.398 2.034l-1.736.436v2.372H44.24v-2.42l-2.265-.388c-1.302-.242-1.495-.581-1.495-1.985v-12.25c0-4.841-2.217-8.279-7.568-8.279-3.567 0-6.604 2.179-8.05 5.035C23.945 32.84 21.631 31 17.775 31c-3.47 0-6.411 2.179-8.002 4.987H9.63l-.338-4.31-.578-.338-7.376.533L1 34.389l2.362.34c1.446.193 1.639.725 1.639 3.001v13.412c0 1.694-.241 2.13-1.253 2.324l-2.314.435v2.421zM55.158 57c3.519 0 5.832-1.55 8.098-4.358h.145l.723 3.97 7.953-.29v-2.47l-2.41-.435c-1.35-.242-1.542-.726-1.542-2.275V31.678l-.579-.34-7.905.534-.338 2.517 2.073.34c1.446.241 1.639.725 1.639 2.953v8.811c0 4.164-2.362 6.634-6.074 6.634-3.47 0-4.29-1.743-4.29-6.004V31.678l-.578-.34-8.002.534-.386 2.517 2.17.34c1.445.241 1.686.725 1.686 2.953v11.087c0 5.084 2.266 8.231 7.617 8.231zM73.765 56.322h10.7V53.95l-1.88-.484c-1.3-.291-1.204-.872-.337-2.034l3.809-4.939 4.097 5.036c.964 1.21.868 1.888-.337 2.082l-2.073.29v2.421H101v-2.518l-1.735-.29c-1.254-.29-1.977-.823-3.23-2.324l-6.267-7.747 5.303-6.681c1.253-1.598 1.928-1.985 3.085-2.228l1.784-.387v-2.47H89.96L89.48 34.1l1.64.435c1.397.34 1.397.824.337 2.18l-3.375 4.55-3.856-4.744c-.964-1.21-.916-1.889.29-2.082l1.83-.34v-2.42H74.103l-.482 2.566 1.687.387c1.205.29 1.639.63 2.844 2.13l6.17 7.554-5.688 7.069c-1.446 1.5-1.976 1.84-3.085 2.13l-1.783.387v2.421z"/></g><g fill-rule="nonzero"><path d="M1.434 86.322h11.955V83.95l-2.025-.533c-1.012-.242-1.205-.58-1.205-2.082v-9.828c0-4.164 2.362-6.634 5.833-6.634 3.23 0 4.193 1.792 4.193 6.053v10.603c0 1.452-.24 1.743-1.398 2.033l-1.735.388v2.372h11.52V83.95l-2.072-.533c-1.012-.242-1.157-.58-1.157-2.082v-10.07c0-4.02 2.507-6.392 5.785-6.392 3.23 0 4.242 1.792 4.242 6.053V81.48c0 1.453-.241 1.792-1.398 2.034l-1.736.436v2.372H44.24v-2.42l-2.265-.388c-1.302-.242-1.495-.581-1.495-1.985v-12.25c0-4.841-2.217-8.279-7.568-8.279-3.567 0-6.604 2.179-8.05 5.035C23.945 62.84 21.631 61 17.775 61c-3.47 0-6.411 2.179-8.002 4.987H9.63l-.338-4.31-.578-.338-7.376.533L1 64.389l2.362.34c1.446.193 1.639.725 1.639 3.001v13.412c0 1.694-.241 2.13-1.253 2.324l-2.314.435v2.421zM55.158 87c3.519 0 5.832-1.55 8.098-4.358h.145l.723 3.97 7.953-.29v-2.47l-2.41-.435c-1.35-.242-1.542-.726-1.542-2.275V61.678l-.579-.34-7.905.534-.338 2.517 2.073.34c1.446.241 1.639.725 1.639 2.953v8.811c0 4.164-2.362 6.634-6.074 6.634-3.47 0-4.29-1.743-4.29-6.004V61.678l-.578-.34-8.002.534-.386 2.517 2.17.34c1.445.241 1.686.725 1.686 2.953v11.087c0 5.084 2.266 8.231 7.617 8.231zM73.765 86.322h10.7V83.95l-1.88-.484c-1.3-.291-1.204-.872-.337-2.034l3.809-4.939 4.097 5.036c.964 1.21.868 1.888-.337 2.082l-2.073.29v2.421H101v-2.518l-1.735-.29c-1.254-.29-1.977-.823-3.23-2.324l-6.267-7.747 5.303-6.681c1.253-1.598 1.928-1.985 3.085-2.228l1.784-.387v-2.47H89.96L89.48 64.1l1.64.435c1.397.34 1.397.824.337 2.18l-3.375 4.55-3.856-4.744c-.964-1.21-.916-1.889.29-2.082l1.83-.34v-2.42H74.103l-.482 2.566 1.687.387c1.205.29 1.639.63 2.844 2.13l6.17 7.554-5.688 7.069c-1.446 1.5-1.976 1.84-3.085 2.13l-1.783.387v2.421z"/></g><path d="M105.034 77.096h2.885v-2.98c0-8.03 2.034-15.29 2.034-18.943 0-2.067-1.23-3.173-3.264-3.173-2.08 0-3.5 1.202-3.5 3.27 0 3.797 1.845 11.201 1.845 18.797v3.03zM106.5 87c2.081 0 3.5-1.346 3.5-3.462 0-2.163-1.419-3.461-3.5-3.461-1.986 0-3.5 1.346-3.5 3.51 0 2.115 1.514 3.413 3.5 3.413z"/></g></svg>